<svg version="1.0" width="40px" height="40px" xmlns="http://www.w3.org/2000/svg"
 viewBox="0 0 167.000000 167.000000"
 preserveAspectRatio="xMidYMid meet">

<g transform="translate(0.000000,167.000000) scale(0.100000,-0.100000)"
fill="#000000" stroke="none">
<path d="M725 1514 c-200 -48 -390 -213 -464 -401 -17 -44 -22 -48 -75 -66
-50 -17 -62 -26 -91 -71 -19 -28 -45 -64 -58 -81 -23 -28 -24 -31 -10 -72 l15
-42 59 29 59 30 0 -255 0 -255 22 -4 c79 -16 98 -15 98 4 0 11 12 34 28 51
l27 31 80 -79 c206 -202 506 -250 769 -122 169 82 302 247 351 433 9 38 26 71
45 91 51 53 70 137 53 238 -5 36 -8 39 -34 33 l-27 -5 -4 130 -3 131 -34 30
c-32 28 -38 30 -92 25 -58 -5 -58 -5 -110 43 -68 62 -187 125 -285 150 -92 24
-230 25 -319 4z m360 -29 c94 -31 169 -75 245 -143 43 -38 59 -47 75 -41 43
17 84 10 117 -20 l33 -29 3 -137 c3 -99 7 -135 15 -132 45 19 44 20 51 -37 9
-79 -9 -151 -50 -196 -24 -27 -41 -60 -55 -111 -92 -333 -426 -542 -759 -475
-133 27 -238 83 -335 178 -76 76 -81 79 -104 66 -13 -7 -31 -28 -40 -45 -12
-24 -23 -33 -43 -33 -60 0 -58 -12 -58 271 0 142 -2 259 -5 259 -3 0 -33 -14
-65 -30 l-60 -30 -11 27 c-12 32 -8 40 54 128 37 52 51 63 101 81 56 20 59 23
81 77 78 190 265 346 470 391 102 23 239 15 340 -19z"/>
<path d="M762 1495 c-94 -17 -220 -78 -298 -142 -69 -58 -143 -161 -179 -248
-19 -47 -30 -61 -52 -68 -75 -22 -99 -39 -125 -85 -15 -26 -36 -56 -47 -66
-23 -21 -25 -33 -12 -54 6 -11 21 -7 69 17 34 17 64 31 67 31 3 0 5 -119 5
-264 l0 -264 32 -7 c23 -6 33 -4 37 6 5 18 76 89 87 89 5 0 23 -19 39 -41 66
-90 206 -180 336 -215 78 -21 233 -24 309 -5 30 7 93 31 140 53 70 34 100 55
170 127 94 96 138 172 169 292 10 41 25 76 34 81 9 5 28 28 42 52 21 36 25 55
25 120 0 84 3 81 -57 59 -10 -4 -13 28 -13 141 0 132 -2 148 -20 166 -27 27
-63 34 -105 20 -36 -12 -38 -11 -84 33 -147 144 -368 211 -569 172z m252 -50
c38 -8 98 -28 133 -44 87 -41 213 -141 177 -141 -3 0 -27 18 -52 41 -56 48
-186 113 -260 128 -193 40 -396 -22 -537 -163 -41 -41 -84 -98 -104 -136 -19
-35 -36 -59 -39 -52 -7 21 52 115 113 181 152 164 358 231 569 186z m26 -106
c-13 -44 -13 -52 3 -43 8 5 8 3 -2 -9 -15 -19 -31 -14 -31 11 0 14 -2 15 -10
2 -6 -9 -5 -17 1 -21 15 -9 -32 -36 -75 -44 -20 -4 -39 -11 -42 -16 -3 -5 -10
-7 -15 -3 -5 3 -7 10 -3 15 3 5 9 7 14 4 5 -3 15 13 21 35 8 26 15 36 20 28 4
-7 3 -18 -3 -25 -5 -7 -8 -18 -6 -25 3 -7 11 0 19 16 17 35 39 45 39 19 1 -14
4 -11 16 10 8 15 19 27 23 27 5 0 14 14 20 32 15 41 23 31 11 -13z m-289 -111
c-16 -44 -12 -69 4 -33 9 19 14 24 15 13 0 -28 14 -21 27 13 8 20 16 28 24 24
8 -6 7 -10 -5 -17 -19 -11 -21 -28 -3 -28 7 0 20 14 28 32 8 17 21 34 29 37
11 3 10 -1 -3 -14 -10 -10 -16 -24 -13 -31 5 -12 -36 -42 -61 -45 -5 -1 -18
-5 -31 -10 -13 -5 -34 -12 -48 -15 -13 -3 -27 -10 -30 -15 -3 -5 -12 -9 -20
-9 -11 0 -14 8 -12 27 3 30 28 45 28 16 0 -15 -2 -16 -10 -3 -8 12 -10 11 -10
-7 0 -34 19 -28 35 11 8 18 21 36 29 39 8 3 17 21 22 39 4 18 9 27 11 20 3 -7
0 -27 -6 -44z m741 25 c13 -12 18 -31 18 -75 l0 -59 -45 -19 -45 -19 0 -71 c0
-53 3 -71 13 -68 6 3 13 24 15 49 5 73 62 100 62 29 0 -53 -43 -103 -88 -103
-58 0 -62 11 -62 160 l0 135 29 29 c33 33 74 38 103 12z m-864 -21 c19 19 26
0 14 -41 -7 -21 -12 -48 -12 -60 0 -11 -5 -21 -11 -21 -7 0 -9 10 -5 25 3 14
9 37 12 53 5 26 5 26 -11 7 -8 -11 -21 -37 -27 -57 -6 -21 -15 -38 -21 -38 -5
0 -7 6 -4 14 15 40 27 98 22 106 -3 6 -3 15 1 22 5 8 11 6 19 -5 9 -12 15 -13
23 -5z m-48 -24 c0 -4 -4 -10 -10 -13 -5 -3 -17 -32 -26 -63 -10 -31 -19 -52
-21 -45 -2 6 0 29 6 50 6 21 11 46 11 57 0 17 -1 17 -25 2 -34 -22 -45 -20
-15 4 23 18 80 24 80 8z m760 10 c-1 -2 -22 -79 -49 -173 -27 -93 -47 -172
-44 -174 9 -11 59 39 68 67 13 45 25 40 25 -10 l0 -43 -68 -27 c-37 -15 -74
-30 -83 -33 -13 -5 -7 27 32 167 27 95 47 177 46 183 -6 16 -67 -52 -67 -74 0
-12 -5 -21 -11 -21 -6 0 -9 17 -7 42 3 42 4 43 68 70 57 24 91 34 90 26z
m-445 -168 c2 0 15 4 29 10 18 6 26 6 26 -1 0 -6 -13 -16 -30 -22 l-30 -11 0
-143 c0 -139 1 -143 21 -143 19 0 20 -2 8 -16 -7 -9 -24 -20 -37 -25 -46 -18
-52 0 -52 158 0 125 -2 144 -15 139 -23 -8 -18 8 10 34 13 12 29 39 35 59 20
65 25 67 28 14 2 -29 5 -53 7 -53z m243 53 c6 -9 12 -42 12 -74 l0 -56 -45
-17 -45 -18 0 -75 c0 -55 3 -74 13 -71 7 3 13 26 15 55 2 42 7 52 28 62 35 15
34 16 34 -35 0 -37 -5 -51 -29 -75 -33 -33 -74 -38 -103 -12 -16 14 -18 33
-18 145 0 71 5 138 10 148 25 47 99 59 128 23z m-742 -109 c102 -48 97 -193
-9 -301 -36 -38 -38 -43 -20 -43 12 0 51 -28 92 -65 39 -36 76 -65 81 -65 13
0 960 374 1000 395 39 20 40 20 40 -22 0 -55 -34 -116 -78 -140 -33 -19 -201
-88 -759 -312 -83 -34 -161 -61 -174 -61 -15 0 -61 39 -146 122 l-123 122 0
-80 c0 -80 0 -81 -40 -123 l-40 -42 0 220 0 219 31 11 c18 6 36 11 40 11 5 0
9 -36 9 -81 0 -91 6 -95 53 -36 35 43 48 123 26 164 -34 64 -114 69 -222 15
l-75 -37 43 60 c35 49 52 63 91 78 57 20 125 17 180 -9z m394 -39 c0 -25 -4
-45 -10 -45 -5 0 -10 6 -10 14 0 19 -29 48 -41 41 -16 -11 -10 -40 26 -122 54
-125 43 -203 -29 -203 -17 0 -37 -5 -44 -12 -9 -9 -12 1 -11 47 0 58 5 58 23
3 3 -10 12 -18 20 -18 30 0 27 39 -9 125 -19 47 -35 100 -35 118 0 44 34 81
67 74 15 -3 27 1 30 9 11 29 23 12 23 -31z m-158 -335 c-10 -14 -32 -31 -47
-39 -25 -12 -32 -12 -54 0 -26 15 -26 16 -29 160 l-3 146 26 11 c14 7 28 12
30 12 3 0 5 -67 5 -150 0 -127 2 -150 15 -150 13 0 15 24 15 158 l0 158 28 10
27 10 3 -150 c2 -134 0 -153 -16 -176z m336 278 c-2 -31 -8 -44 -20 -46 -15
-3 -18 4 -18 36 0 42 5 52 27 52 10 0 13 -11 11 -42z m505 -250 c-23 -80 -38
-111 -81 -176 -81 -118 -213 -211 -352 -247 -81 -21 -225 -22 -302 -1 -70 19
-181 72 -204 97 -24 27 -5 23 39 -6 56 -39 124 -65 205 -81 94 -18 135 -18
229 2 205 42 380 197 442 392 27 82 48 99 24 20z m-83 -38 c11 -7 11 -10 2
-10 -7 0 -10 -4 -7 -10 11 -18 -11 -10 -30 10 -17 19 -17 20 1 20 10 0 26 -5
34 -10z m-45 -60 c4 -6 11 -8 16 -5 5 4 9 1 9 -4 0 -15 -11 -13 -34 4 -11 8
-15 15 -9 15 7 0 15 -5 18 -10z m-11 -60 c-8 -8 -18 -4 -35 10 l-24 21 23 -11
c13 -7 26 -9 29 -6 3 3 -2 8 -11 12 -9 3 -16 11 -16 17 0 6 10 1 22 -11 16
-15 19 -25 12 -32z m-40 -19 c15 -16 15 -19 1 -31 -14 -11 -19 -10 -38 8 -19
20 -20 22 -4 22 10 0 15 5 12 10 -11 17 11 11 29 -9z m-48 -67 c-7 -8 -15 -5
-27 10 -12 15 -14 23 -6 28 17 10 46 -24 33 -38z m-38 -22 c2 -14 -2 -22 -12
-22 -17 0 -39 34 -29 44 14 13 38 0 41 -22z m-78 3 c-10 -12 -10 -15 2 -15 7
0 14 -9 14 -20 0 -27 -10 -25 -25 6 -12 26 -8 44 11 44 7 0 6 -6 -2 -15z
m-400 -25 c12 -7 12 -12 2 -22 -6 -6 -13 -21 -13 -32 -1 -17 -2 -18 -6 -3 -5
19 -23 24 -23 5 0 -6 -2 -9 -5 -6 -7 6 15 68 23 68 4 0 14 -5 22 -10z m345
-31 c9 -27 -12 -50 -25 -29 -14 22 -12 50 4 50 8 0 18 -9 21 -21z m-295 0 c0
-5 -4 -7 -10 -4 -5 3 -10 2 -10 -4 0 -5 6 -12 13 -14 6 -3 3 -6 -8 -6 -17 -1
-17 -3 -5 -11 13 -8 12 -10 -4 -10 -12 0 -16 5 -12 16 3 9 6 22 6 30 0 8 7 14
15 14 8 0 15 -5 15 -11z m170 1 c-13 -9 -13 -11 0 -20 10 -6 11 -10 3 -10 -19
0 -16 -18 5 -23 13 -4 11 -5 -5 -6 -20 -1 -23 4 -23 34 0 27 4 35 18 35 14 0
15 -2 2 -10z m74 -22 c5 -21 3 -26 -12 -24 -9 2 -19 13 -20 26 -2 14 0 20 7
16 6 -4 11 -2 11 5 0 18 6 8 14 -23z m-215 -29 c-19 -12 -21 -5 -7 27 11 29
12 29 16 5 2 -13 -2 -27 -9 -32z m67 11 c-1 -25 -3 -28 -12 -15 -9 13 -13 13
-17 3 -3 -7 -6 -4 -6 8 -1 23 7 34 24 34 7 0 12 -13 11 -30z"/>
<path d="M950 1273 c0 -13 5 -23 10 -23 13 0 13 11 0 30 -8 12 -10 11 -10 -7z"/>
<path d="M715 1189 c-4 -6 -5 -12 -2 -15 2 -3 7 2 10 11 7 17 1 20 -8 4z"/>
<path d="M1427 1233 c-4 -3 -7 -35 -7 -69 0 -52 3 -62 15 -58 11 5 15 22 15
70 0 59 -6 74 -23 57z"/>
<path d="M1060 1024 c0 -48 3 -65 13 -62 7 3 13 28 15 66 2 51 0 62 -13 62
-12 0 -15 -13 -15 -66z"/>
<path d="M1457 833 c-2 -5 -1 -21 3 -38 l6 -30 5 38 c4 33 -3 50 -14 30z"/>
<path d="M1392 780 c0 -19 2 -29 5 -21 5 11 7 11 14 0 7 -11 9 -11 9 3 0 9 3
23 6 32 3 9 1 16 -6 16 -6 0 -8 -4 -5 -10 3 -5 2 -10 -4 -10 -5 0 -12 6 -14
13 -3 6 -5 -4 -5 -23z"/>
<path d="M1337 783 c-9 -9 -9 -63 1 -63 4 0 14 5 22 11 13 9 12 10 -2 5 -21
-6 -23 4 -5 23 10 11 10 13 0 7 -7 -4 -13 -3 -13 3 0 5 6 12 13 14 6 3 7 6 1
6 -6 1 -14 -2 -17 -6z"/>
<path d="M1290 748 c0 -21 0 -21 -15 -2 -13 18 -14 16 -14 -21 0 -22 3 -34 6
-27 2 6 9 10 14 6 5 -3 9 0 9 6 0 6 5 8 10 5 6 -4 10 7 10 24 0 17 -4 31 -10
31 -5 0 -10 -10 -10 -22z"/>
<path d="M1207 733 c-2 -5 -1 -19 3 -33 6 -24 7 -24 11 8 5 29 -4 44 -14 25z"/>
<path d="M1171 706 c-1 -15 -4 -16 -16 -6 -13 11 -15 8 -14 -21 1 -20 3 -26 6
-15 4 15 7 16 13 5 13 -20 22 -5 17 28 -2 15 -5 20 -6 9z"/>
<path d="M1025 676 c-22 -33 -16 -70 12 -74 26 -4 46 27 41 66 -4 36 -32 40
-53 8z m39 -5 c9 -14 -12 -63 -24 -56 -11 7 -14 48 -3 58 9 10 21 9 27 -2z"/>
<path d="M1102 660 c0 -19 2 -27 5 -17 2 9 2 25 0 35 -3 9 -5 1 -5 -18z"/>
<path d="M924 618 c-12 -19 -14 -58 -3 -58 6 0 7 5 3 12 -5 7 -2 9 8 6 11 -5
15 1 16 23 1 30 -11 38 -24 17z m16 -8 c0 -5 -5 -10 -11 -10 -5 0 -7 5 -4 10
3 6 8 10 11 10 2 0 4 -4 4 -10z"/>
<path d="M873 603 c-15 -5 -18 -73 -4 -73 6 0 13 5 16 10 3 6 1 10 -6 10 -8 0
-7 5 2 17 10 11 10 14 2 9 -7 -4 -13 -3 -13 3 0 5 6 11 13 14 6 2 10 7 7 9 -3
3 -11 3 -17 1z"/>
<path d="M807 573 c-4 -3 -7 -18 -7 -31 0 -24 1 -25 20 -7 11 10 20 24 20 32
0 14 -22 18 -33 6z m23 -13 c0 -5 -5 -10 -11 -10 -5 0 -7 5 -4 10 3 6 8 10 11
10 2 0 4 -4 4 -10z"/>
<path d="M763 540 c-5 -19 -6 -20 -19 -3 -12 16 -13 14 -13 -22 0 -22 3 -34 6
-27 2 6 9 10 14 6 5 -3 9 0 9 6 0 6 5 8 10 5 6 -4 10 7 10 24 0 35 -9 41 -17
11z"/>
<path d="M691 503 c-1 -37 -20 -45 -22 -10 -1 18 -2 19 -6 3 -3 -10 0 -23 6
-29 17 -17 33 6 28 39 -4 29 -4 28 -6 -3z"/>
<path d="M603 513 c-14 -5 -18 -79 -5 -87 5 -3 18 2 30 10 16 11 21 23 18 47
-3 31 -18 41 -43 30z m19 -25 c-7 -7 -12 -8 -12 -2 0 6 3 14 7 17 3 4 9 5 12
2 2 -3 -1 -11 -7 -17z m8 -27 c0 -6 -4 -13 -10 -16 -5 -3 -10 1 -10 9 0 9 5
16 10 16 6 0 10 -4 10 -9z"/>
<path d="M1176 386 c3 -9 11 -16 16 -16 13 0 5 23 -10 28 -7 2 -10 -2 -6 -12z"/>
<path d="M710 350 c0 -5 5 -10 11 -10 5 0 7 5 4 10 -3 6 -8 10 -11 10 -2 0 -4
-4 -4 -10z"/>
<path d="M1050 326 c0 -8 5 -18 10 -21 6 -3 10 1 10 9 0 8 -4 18 -10 21 -5 3
-10 -1 -10 -9z"/>
</g>
</svg>
